<?xml version="1.0" encoding="utf-8"?>
<!-- Generator: Adobe Illustrator 16.0.0, SVG Export Plug-In . SVG Version: 6.00 Build 0)  -->
<svg version="1.2" baseProfile="tiny" xmlns="http://www.w3.org/2000/svg" xmlns:xlink="http://www.w3.org/1999/xlink" x="0px"
	 y="0px" width="349.851px" height="95.035px" viewBox="0 0 349.851 95.035" xml:space="preserve">
<g id="DO_NOT_PRINT" display="none">
	<rect x="-246.025" y="-74.714" display="inline" fill="#7D1416" width="606.293" height="248.253"/>
</g>
<g id="Linode">
	<g>
		<path fill="#FFFFFF" d="M0,3.678L15.328,0v73.819c0,8.093,2.413,12.92,7.235,14.469c-2.37,4.5-6.416,6.747-12.139,6.747
			C3.474,95.035,0,90.214,0,80.564V3.678z"/>
		<path fill="#FFFFFF" d="M38.507,93.81V40.711h-8.401V28.143h23.913V93.81H38.507z M46.415,2.699c2.454,0,4.545,0.869,6.282,2.604
			c1.738,1.738,2.608,3.833,2.608,6.285c0,2.452-0.87,4.547-2.608,6.284c-1.737,1.738-3.829,2.606-6.282,2.606
			c-2.452,0-4.547-0.869-6.285-2.606c-1.738-1.736-2.606-3.832-2.606-6.284c0-2.453,0.868-4.547,2.606-6.285
			C41.868,3.568,43.962,2.699,46.415,2.699z"/>
		<path fill="#FFFFFF" d="M114.103,93.81V55.855c0-5.6-1.073-9.688-3.217-12.262c-2.149-2.575-5.652-3.862-10.515-3.862
			c-2.251,0-4.651,0.634-7.206,1.9c-2.555,1.267-4.549,2.843-5.979,4.722V93.81H71.861V28.143h11.035l2.82,6.132
			c4.17-4.906,10.319-7.357,18.455-7.357c7.807,0,13.968,2.34,18.486,7.018c4.516,4.684,6.773,11.212,6.773,19.589V93.81H114.103z"
			/>
		<path fill="#FFFFFF" d="M141.695,60.821c0-10.014,2.891-18.167,8.675-24.462c5.786-6.295,13.419-9.442,22.902-9.442
			c9.971,0,17.72,3.024,23.236,9.074c5.518,6.05,8.279,14.327,8.279,24.831c0,10.464-2.811,18.785-8.434,24.955
			c-5.619,6.171-13.314,9.259-23.082,9.259c-9.975,0-17.729-3.117-23.269-9.35C144.464,79.452,141.695,71.162,141.695,60.821z
			 M157.637,60.821c0,14.472,5.211,21.707,15.635,21.707c4.779,0,8.57-1.882,11.373-5.642c2.8-3.76,4.198-9.113,4.198-16.065
			c0-14.264-5.19-21.397-15.571-21.397c-4.784,0-8.584,1.88-11.404,5.641C159.047,48.825,157.637,54.078,157.637,60.821z"/>
		<path fill="#FFFFFF" d="M259.291,93.81v-3.985c-1.268,1.39-3.408,2.608-6.436,3.648c-3.023,1.043-6.153,1.562-9.38,1.562
			c-9.158,0-16.365-2.902-21.615-8.706c-5.251-5.803-7.879-13.899-7.879-24.28c0-10.382,3.016-18.834,9.047-25.353
			c6.027-6.519,13.578-9.779,22.651-9.779c4.99,0,9.525,1.021,13.611,3.064V3.678L274.62,0v93.81H259.291z M259.291,43.839
			c-3.268-2.615-6.68-3.924-10.236-3.924c-6.132,0-10.855,1.869-14.162,5.61c-3.312,3.741-4.971,9.102-4.971,16.095
			c0,13.65,6.584,20.478,19.747,20.478c1.47,0,3.277-0.438,5.426-1.319c2.145-0.877,3.542-1.769,4.196-2.666V43.839z"/>
		<path fill="#FFFFFF" d="M348.566,65.666h-46.905c0.286,5.232,2.083,9.301,5.395,12.201c3.312,2.902,7.768,4.354,13.369,4.354
			c6.987,0,12.302-1.819,15.939-5.456l5.949,11.707c-5.397,4.379-13.452,6.563-24.16,6.563c-10.016,0-17.935-2.934-23.757-8.801
			c-5.827-5.864-8.741-14.049-8.741-24.554c0-10.339,3.202-18.72,9.599-25.138s14.07-9.626,23.023-9.626
			c9.522,0,17.168,2.841,22.93,8.522c5.766,5.683,8.645,12.916,8.645,21.706C349.851,59.024,349.422,61.864,348.566,65.666z
			 M302.212,54.14h32.25c-1.063-9.606-6.374-14.409-15.94-14.409C309.774,39.731,304.338,44.533,302.212,54.14z"/>
	</g>
</g>
</svg>
