<?xml version="1.0" encoding="utf-8"?>
<!-- Generator: Adobe Illustrator 16.0.0, SVG Export Plug-In . SVG Version: 6.00 Build 0)  -->
<svg version="1.2" baseProfile="tiny" id="Layer_1" xmlns="http://www.w3.org/2000/svg" xmlns:xlink="http://www.w3.org/1999/xlink"
	 x="0px" y="0px" width="250px" height="250px" viewBox="0 0 250 250" xml:space="preserve">
<rect fill="#CCCCC8" width="250" height="250"/>
<g>
	<path fill="#222222" d="M153.947,65.891c-8.096,0-16.11,18.341-16.896,26.113c-0.129,0.896-0.734,2.344,1.279,2.304l25.857-0.512
		c1.792-0.036,2.049,1.536,2.049,3.2c0,2.816-0.82,6.133-1.921,10.88l-7.681,30.85c-0.371,1.49-0.127,2.176,1.024,2.176
		c4.608,0,8.577-6.145,10.497-6.145c0.768,0,0.896,0.896,0.896,1.664c0,4.48-10.24,14.209-17.921,14.209
		c-4.225,0-5.632-2.432-5.632-5.248c0-1.536,0.512-2.944,0.768-3.969l7.937-31.745c2.003-8.012,0.896-9.766-0.768-9.729
		l-16.641,0.384c-1.536,0.036-1.846-0.118-2.049,1.92c-0.639,6.4-6.271,42.242-8.832,52.739
		c-2.561,10.368-12.033,24.577-25.345,24.577c-3.037,0-8.361-2.685-10.692-5.724c-4.039,5.245-9.266,9.18-15.549,9.18
		c-3.968,0-9.345-2.176-9.345-6.145c0-3.84,1.792-7.681,5.376-7.681c1.792,0,5.888,6.272,9.088,6.272
		c4.224,0,5.974-5.546,7.68-12.673c2.176-9.088,8.69-43.329,10.113-59.266c0.114-1.275,0.255-1.969-1.152-1.92l-7.296,0.384
		c-1.278,0.067-2.048-0.128-2.048-1.408c0-1.28,1.667-3.877,3.072-3.968l7.168-0.384c1.278-0.069,1.312-0.306,1.664-1.536
		c6.598-23.01,20.737-31.105,29.313-31.105c5.651,0,10.029,1.676,12.017,5.078c6.116-5.951,12.588-8.79,17.041-8.79
		c7.809,0,14.849,4.346,14.849,11.777c0,4.48-4.353,7.808-7.809,7.808c-2.56,0-2.944-2.048-2.944-5.12
		C161.115,71.011,158.172,65.891,153.947,65.891z M109.657,100.836c-1.535,0.058-1.845,0.65-2.048,2.688
		c-0.639,6.4-6.272,40.961-8.833,51.458c-0.672,2.723-1.759,5.948-3.238,9.226c2.034,0.987,6.402,8.183,9.383,8.183
		c4.224,0,7.638-2.474,9.344-9.601c2.176-9.088,8.69-44.609,10.113-60.546c0.114-1.275,0.255-1.973-1.152-1.92L109.657,100.836z
		 M124.25,70.115c-7.937,0-13.422,15.397-14.337,23.169c-0.128,0.896-0.732,2.404,1.28,2.304l12.928-0.64
		c1.279-0.063,1.312-0.305,1.664-1.536c1.677-5.849,3.966-10.892,6.587-15.16C131.941,73.444,129.453,70.115,124.25,70.115z"/>
</g>
<g>
</g>
<g>
</g>
<g>
</g>
<g>
</g>
<g>
</g>
<g>
</g>
<g>
</g>
<g>
</g>
<g>
</g>
<g>
</g>
<g>
</g>
<g>
</g>
<g>
</g>
<g>
</g>
<g>
</g>
</svg>
