<?xml version="1.0" encoding="utf-8"?>
<!-- Generator: Adobe Illustrator 16.0.0, SVG Export Plug-In . SVG Version: 6.00 Build 0)  -->
<svg version="1.2" baseProfile="tiny" id="Layer_1" xmlns="http://www.w3.org/2000/svg" xmlns:xlink="http://www.w3.org/1999/xlink"
	 x="0px" y="0px" width="666.128px" height="66.128px" viewBox="0 0 666.128 66.128" xml:space="preserve">
<g>
	<path fill="#EE6650" stroke="#EE6650" stroke-miterlimit="10" d="M614.256,1.376l14.634,25.349L614.256,1.376z"/>
	<polygon fill="#EE6650" stroke="#EE6650" stroke-miterlimit="10" points="629.741,28.053 629.437,24.985 627.05,26.584 	"/>
</g>
<g>
	<path fill="#EE6650" stroke="#EE6650" stroke-miterlimit="10" d="M389.851,65.053L405.89,37.27L389.851,65.053z"/>
	<polygon fill="#EE6650" stroke="#EE6650" stroke-miterlimit="10" points="406.741,35.941 406.437,39.01 404.05,37.41 	"/>
</g>
<g>
	<path fill="#EE6650" stroke="#EE6650" stroke-miterlimit="10" d="M83.85,29.942l16.04,27.783L83.85,29.942z"/>
	<polygon fill="#EE6650" stroke="#EE6650" stroke-miterlimit="10" points="100.742,59.053 100.436,55.985 98.05,57.584 	"/>
</g>
<line fill="none" stroke="#000000" stroke-width="0.5px" stroke-miterlimit="10" x1="2.897" y1="2.73" x2="614.897" y2="2.73"/>
<line fill="none" stroke="#000000" stroke-width="0.5px" stroke-miterlimit="10" x1="2.897" y1="31.73" x2="662.897" y2="31.73"/>
<line fill="none" stroke="#000000" stroke-width="0.5px" stroke-miterlimit="10" x1="390.897" y1="62.73" x2="102.897" y2="62.73"/>
<circle fill="#EE6650" cx="3.064" cy="3.064" r="3.064"/>
<circle fill="#EE6650" cx="3.064" cy="32.064" r="3.064"/>
<circle fill="#EE6650" cx="97.064" cy="3.064" r="3.064"/>
<circle fill="#EE6650" cx="33.064" cy="32.064" r="3.064"/>
<circle fill="#EE6650" cx="72.064" cy="32.064" r="3.064"/>
<circle fill="#EE6650" cx="103.064" cy="63.064" r="3.064"/>
<circle fill="#EE6650" cx="170.064" cy="63.064" r="3.064"/>
<circle fill="#EE6650" cx="255.064" cy="3.064" r="3.064"/>
<circle fill="#EE6650" cx="269.064" cy="3.064" r="3.064"/>
<circle fill="#EE6650" cx="283.064" cy="3.064" r="3.064"/>
<circle fill="#EE6650" cx="469.064" cy="3.064" r="3.064"/>
<circle fill="#EE6650" cx="487.064" cy="3.064" r="3.064"/>
<circle fill="#EE6650" cx="496.064" cy="3.064" r="3.064"/>
<circle fill="#EE6650" cx="515.064" cy="3.064" r="3.064"/>
<circle fill="#EE6650" cx="535.064" cy="3.064" r="3.064"/>
<circle fill="#EE6650" cx="583.064" cy="3.064" r="3.064"/>
<circle fill="#EE6650" cx="152.064" cy="32.064" r="3.064"/>
<circle fill="#EE6650" cx="222.064" cy="32.064" r="3.064"/>
<circle fill="#EE6650" cx="238.064" cy="32.064" r="3.064"/>
<circle fill="#EE6650" cx="272.064" cy="32.064" r="3.064"/>
<circle fill="#EE6650" cx="319.064" cy="32.064" r="3.064"/>
<circle fill="#EE6650" cx="441.064" cy="32.064" r="3.064"/>
<circle fill="#EE6650" cx="563.064" cy="32.064" r="3.064"/>
<circle fill="#EE6650" cx="598.064" cy="32.064" r="3.064"/>
<circle fill="#EE6650" cx="344.064" cy="63.064" r="3.064"/>
<circle fill="#EE6650" cx="608.064" cy="32.064" r="3.064"/>
<circle fill="#EE6650" cx="615.064" cy="3.064" r="3.064"/>
<circle fill="#EE6650" cx="632.064" cy="32.064" r="3.064"/>
<circle fill="#EE6650" cx="663.064" cy="32.064" r="3.064"/>
<circle fill="#EE6650" cx="356.064" cy="63.064" r="3.064"/>
<circle fill="#EE6650" cx="370.064" cy="63.064" r="3.064"/>
<circle fill="#EE6650" cx="391.064" cy="63.064" r="3.064"/>
<circle fill="#EE6650" cx="409.064" cy="32.064" r="3.064"/>
<circle fill="#EE6650" cx="85.064" cy="32.064" r="3.064"/>
</svg>
