<?xml version="1.0" encoding="utf-8"?>
<!-- Generator: Adobe Illustrator 16.0.0, SVG Export Plug-In . SVG Version: 6.00 Build 0)  -->
<svg version="1.2" baseProfile="tiny" id="Layer_1" xmlns="http://www.w3.org/2000/svg" xmlns:xlink="http://www.w3.org/1999/xlink"
	 x="0px" y="0px" width="250px" height="250px" viewBox="0 0 250 250" xml:space="preserve">
<rect fill="#FF7878" width="250" height="250"/>
<g>
	<g>
		<path fill="#FFFFFF" d="M178.235,165.56c-7.314,0-9.607,0.142-14.086,0.142c-2.985,0-5.515-0.422-4.883-2.107
			c0.685-1.826,2.739-2.528,4.688-2.949c4.996-0.984,7.48-3.23,8.429-5.759c1.421-3.792,0.907-13.975,1.846-20.856
			c0.122-1.124-0.37-1.404-2.311-1.404h-20.603c-0.597,0-1.404,0.561-2.536,2.387c-2.212,3.512-13.36,16.925-13.887,18.33
			c-1.316,3.511,0.168,6.318,3.182,7.443c2.072,0.843,3.108,1.264,2.425,3.09c-0.632,1.685-2.23,1.967-3.873,1.967
			c-1.94,0-5.567-0.282-9.449-0.282c-4.628,0-17.783,0.843-21.217,0.843c-1.643,0-2.925-0.561-2.293-2.247
			c0.685-1.825,2.739-2.527,6.094-3.511c5.304-1.404,10.451-3.924,15.943-10.674l45.947-56.462c3.149-3.558,4.635-6.425,5.459-8.989
			c1.649-0.421,7.059-3.301,9.965-5.478c7.252-5.408,6.114-6.953,7.493-7.444c0.746,0,0.601,1.441,0.606,3.16
			c0,0-0.021,64.187,0.268,76.758c1.474,8.215,5.816,8.777,7.35,9.27c2.655,0.972,4.093,1.826,3.461,3.511
			c-0.632,1.686-3.223,1.826-6.208,1.826C194.82,166.122,186.597,165.56,178.235,165.56z M175.737,100.53
			c0.184-1.685,0.299-2.388,0-2.388c-0.149,0-0.562,0.703-1.59,2.248l-18.347,23.455c-0.324,0.416-0.518,0.983-0.518,0.983
			c-0.158,0.421,0.387,0.562,1.88,0.562h16.123c1.194,0,1.45-0.281,1.502-0.421c0.053-0.141,0.256-0.573,0.272-1.124L175.737,100.53
			z"/>
	</g>
	<g>
		<g>
			<path fill="#FFFFFF" d="M55.599,100.656c26.667,0,53.333,0,80,0c1.935,0,1.935-3,0-3c-26.667,0-53.333,0-80,0
				C53.664,97.656,53.664,100.656,55.599,100.656L55.599,100.656z"/>
		</g>
		<g>
			<path fill="#FFFFFF" d="M40.599,117.656c26.667,0,53.333,0,80,0c1.935,0,1.935-3,0-3c-26.667,0-53.333,0-80,0
				C38.664,114.656,38.664,117.656,40.599,117.656L40.599,117.656z"/>
		</g>
		<g>
			<path fill="#FFFFFF" d="M25.599,134.656c26.667,0,53.333,0,80,0c1.935,0,1.935-3,0-3c-26.667,0-53.333,0-80,0
				C23.664,131.656,23.664,134.656,25.599,134.656L25.599,134.656z"/>
		</g>
	</g>
</g>
<g>
</g>
<g>
</g>
<g>
</g>
<g>
</g>
<g>
</g>
<g>
</g>
<g>
</g>
<g>
</g>
<g>
</g>
<g>
</g>
<g>
</g>
<g>
</g>
<g>
</g>
<g>
</g>
<g>
</g>
</svg>
