<?xml version="1.0" encoding="utf-8"?>
<!-- Generator: Adobe Illustrator 16.0.0, SVG Export Plug-In . SVG Version: 6.00 Build 0)  -->
<svg version="1.2" baseProfile="tiny" id="Layer_1" xmlns="http://www.w3.org/2000/svg" xmlns:xlink="http://www.w3.org/1999/xlink"
	 x="0px" y="0px" width="250px" height="250px" viewBox="0 0 250 250" xml:space="preserve">
<rect fill="#333333" width="250" height="250"/>
<g>
	<path fill="#AE4B3B" d="M75.705,62.257c27.161,41.05,54.321,82.099,81.482,123.148c2.173,3.284,4.346,6.567,6.519,9.852
		c1.062,1.605,3.661,0.104,2.59-1.514c-27.16-41.05-54.321-82.099-81.481-123.148c-2.173-3.284-4.346-6.568-6.519-9.852
		C77.233,59.138,74.634,60.639,75.705,62.257L75.705,62.257z"/>
</g>
<g>
	<path fill="#AE4B3B" d="M54.061,90.561c8-9.333,16-18.667,24-28c1.252-1.46-0.86-3.592-2.121-2.121c-8,9.333-16,18.667-24,28
		C50.688,89.899,52.8,92.032,54.061,90.561L54.061,90.561z"/>
</g>
<g>
	<path fill="#AE4B3B" d="M53,91c48.046,5.125,96.093,10.25,144.139,15.375c1.954,0.208,3.907,0.417,5.861,0.625
		c1.923,0.205,1.903-2.797,0-3c-48.046-5.125-96.092-10.25-144.139-15.375C56.908,88.417,54.954,88.208,53,88
		C51.077,87.795,51.097,90.797,53,91L53,91z"/>
</g>
<g>
	<path fill="#AE4B3B" d="M66.5,177.5c4-38.667,8-77.333,12-116c0.199-1.924-2.803-1.904-3,0c-4,38.667-8,77.333-12,116
		C63.301,179.424,66.303,179.404,66.5,177.5L66.5,177.5z"/>
</g>
<g>
	<path fill="#AE4B3B" d="M165.398,193.054c-33.333-5.667-66.667-11.333-100-17c-1.892-0.321-2.702,2.569-0.798,2.893
		c33.333,5.667,66.667,11.333,100,17C166.493,196.268,167.303,193.377,165.398,193.054L165.398,193.054z"/>
</g>
<g>
	<path fill="#AE4B3B" d="M201.705,104.743c-12.667,29.666-25.334,59.333-38,89c-0.751,1.758,1.832,3.288,2.59,1.514
		c12.667-29.666,25.334-59.333,38-89C205.046,104.499,202.463,102.969,201.705,104.743L201.705,104.743z"/>
</g>
<g>
	<path fill="#AE4B3B" d="M76.601,62.946c41.997,14.666,83.994,29.331,125.991,43.997c0.003,0.001,0.006,0.002,0.01,0.003
		c1.831,0.64,2.611-2.259,0.797-2.893c-41.996-14.666-83.994-29.331-125.99-43.997c-0.003-0.001-0.006-0.002-0.009-0.003
		C75.567,59.414,74.787,62.313,76.601,62.946L76.601,62.946z"/>
</g>
<g>
	<path fill="#AE4B3B" d="M51.554,89.899c4,29.333,8,58.667,12,88c0.26,1.91,3.15,1.094,2.893-0.797c-4-29.334-8-58.667-12-88
		C54.186,87.192,51.296,88.008,51.554,89.899L51.554,89.899z"/>
</g>
<g>
	<path fill="#AE4B3B" d="M202.243,104.205c-43.369,22.627-86.738,45.254-130.106,67.881c-2.631,1.373-5.263,2.746-7.894,4.119
		c-1.716,0.895-0.199,3.483,1.514,2.59c43.369-22.627,86.737-45.254,130.106-67.881c2.631-1.373,5.263-2.746,7.894-4.118
		C205.473,105.9,203.956,103.311,202.243,104.205L202.243,104.205z"/>
</g>
<g>
	<path fill="#AE4B3B" d="M51.939,90.561c35.497,33.278,70.993,66.557,106.49,99.835c1.837,1.722,3.673,3.443,5.51,5.165
		c1.409,1.321,3.535-0.796,2.121-2.121c-35.497-33.278-70.993-66.557-106.49-99.834c-1.836-1.722-3.673-3.444-5.51-5.166
		C52.651,87.118,50.525,89.235,51.939,90.561L51.939,90.561z"/>
</g>
<ellipse fill="#FFFFFF" cx="-564.5" cy="-235.5" rx="3.5" ry="2.5"/>
<circle fill="#FFFFFF" cx="77" cy="61.5" r="6"/>
<circle fill="#FFFFFF" cx="203" cy="105.5" r="6"/>
<circle fill="#FFFFFF" cx="53" cy="89.5" r="6"/>
<circle fill="#FFFFFF" cx="65" cy="177.5" r="6"/>
<circle fill="#FFFFFF" cx="165" cy="194.5" r="6"/>
<g>
</g>
<g>
</g>
<g>
</g>
<g>
</g>
<g>
</g>
<g>
</g>
<g>
</g>
<g>
</g>
<g>
</g>
<g>
</g>
<g>
</g>
<g>
</g>
<g>
</g>
<g>
</g>
<g>
</g>
</svg>
